# xmcd
#
# Track frame offsets: 
#        150
#        19368
#        30207
#        55213
#        76175
#        94586
#        111567
#        129032
#        139616
#        155145
#        172792
#        192122
#
# Disc length: 2798 seconds
#
# Revision: 0
# Processed by: cddbd v1.5.2PL0 Copyright (c) Steve Scherf et al.
# Submitted via: ExactAudioCopy v1.3
#
DISCID=8c0aec0c
DTITLE=Sven Zetterberg - Blues From Within
DYEAR=1999
DGENRE=Blues
TTITLE0=Plenty Of Everything
TTITLE1=38th Street Blues
TTITLE2=You're Breaking My Heart
TTITLE3=People Don't Do Like They Used To Do
TTITLE4=That's Why I'm Crying
TTITLE5=She's Doing The Boogaloo
TTITLE6=My Deepest Emotions
TTITLE7=Somebody Been Talking
TTITLE8=Bloody Tears
TTITLE9=Crosstown Blues
TTITLE10=All Your Love
TTITLE11=The Bottom Of The Top
EXTD=
EXTT0=
EXTT1=
EXTT2=
EXTT3=
EXTT4=
EXTT5=
EXTT6=
EXTT7=
EXTT8=
EXTT9=
EXTT10=
EXTT11=
PLAYORDER=
